# xmcd CD database file
#
# Track frame offsets:
#	150
#	24497
#	49535
#	70125
#	108392
#	135195
#	159162
#	176447
#	212225
#	233685
#
# Disc length: 3308 seconds
#
# Revision: 0
# Processed by: cddbd v1.5.1PL2 Copyright (c) Steve Scherf et al.
# Submitted via: CDex 1.51
#
DISCID=750cea0a
DTITLE=KONAMI - The Millennium of BACH
DYEAR=2002
DGENRE=Classic Rock
TTITLE0=TOCCATA UNITY MIX
TTITLE1=ANTHEM -トッカータ・G線上のアリア-
TTITLE2=スタイルオブアタック -チェンバロ協奏曲-
TTITLE3=バディネリ・来たれ甘い死の時よ
TTITLE4=ピアノ協奏曲ヘ短調〜第2楽章〜
TTITLE5=小フーガ
TTITLE6=無伴奏チェロ組曲
TTITLE7=シャコンヌ
TTITLE8=平均率クラヴィーア曲集＝第1番ハ長調
TTITLE9=FUGUE ETERNITY MIX
EXTD=YEAR: 2002
EXTT0=
EXTT1=
EXTT2=
EXTT3=
EXTT4=
EXTT5=
EXTT6=
EXTT7=
EXTT8=
EXTT9=
PLAYORDER=
